<?xml version="1.0" encoding="utf-8"?>
<!-- Generator: Adobe Illustrator 15.1.0, SVG Export Plug-In . SVG Version: 6.00 Build 0)  -->
<!DOCTYPE svg PUBLIC "-//W3C//DTD SVG 1.1//EN" "http://www.w3.org/Graphics/SVG/1.1/DTD/svg11.dtd">
<svg version="1.1" id="Layer_1" xmlns="http://www.w3.org/2000/svg" xmlns:xlink="http://www.w3.org/1999/xlink" x="0px" y="0px"
	 width="595.28px" height="841.89px" viewBox="0 0 595.28 841.89" enable-background="new 0 0 595.28 841.89" xml:space="preserve">
<g>
	<path fill-rule="evenodd" clip-rule="evenodd" fill="#FFFFFF" d="M100,231.89c122.65,0,245.303,0,367.954,0
		c0,122.985,0,245.969,0,368.954c-122.985,0-245.969,0-368.954,0c0-121.983,0-243.971,0-365.955
		C98.914,233.471,98.835,232.058,100,231.89z M416.96,325.878c-4.424,4.839-11.776,3.611-11.998,9.999
		c-0.192,5.523,8.295,9.09,9.999,9.999c24.413,13.026,31.362-12.989,37.995-27.997c4.287-9.701,15.109-31.026,12.998-40.995
		c-2.157-10.183-29.515-18.136-47.994-17.998c-22.709,0.17-44.331,9.921-52.993,20.998c-15.081,19.284-9.154,54.409-19.998,83.989
		c-5.31-12.08-10.494-24.754-7.998-39.995c2.459-15.022,17.334-24.43,18.997-37.995c-16.001-8.136-31.02,5.017-45.994,10.999
		c-14.223,5.681-30.682,9.819-48.994,13.999c-27.313,6.234-88.836,9.32-91.988,34.996c-1.099,8.95,4.455,19.381,7.999,27.997
		c3.556,8.645,4.541,21.02,14.998,21.997c5.907-8.953,1.45-21.625,5-29.996c7.6-17.92,39.52-22.718,61.992-29.997
		c19.896-6.444,39.07-13.139,52.994-16.998c-13.69,34.532-39.166,67.116-61.993,96.988c-6.448,8.439-14.451,22.203-20.997,24.997
		c-10.72,4.575-24.848-0.053-31.996,7.999c-6.759,7.614,0.309,19.277-3,31.996c-1.264,4.86-11.148,13.642-16.998,18.998
		c-15.559,14.244-22.83,20.319-39.995,32.995c-6.439,4.756-18.668,9.81-18.998,17.998c-0.457,11.372,13.729,17.724,21.998,22.997
		c20.47-13.598,41.983-28.961,75.99-25.996c2.07-15.966-6.013-35.03-22.997-31.996c6.016-7.649,11.662-15.669,18.998-21.998
		c3.925,7.331,10.577,16.576,16.998,22.998c23.847,23.847,73.827,58.423,112.986,51.993c9.929-1.631,21.081-9.549,29.996-16.998
		c8.021-6.703,18.992-20.591,24.997-31.996c14.578-27.688,0.898-52.859-9.999-73.99c-4.944-9.588-17.621-24.569-18.997-35.996
		c-1.199-9.949,3.43-22.804,4.999-33.996c5.065-36.122,9.518-69.801,22.997-95.988c9.777-2.277,19.951-8.172,30.996-6
		C432.316,289.771,426.756,315.164,416.96,325.878z"/>
	<path fill-rule="evenodd" clip-rule="evenodd" d="M426.959,273.885c-11.045-2.172-21.219,3.722-30.996,6
		c-13.479,26.187-17.932,59.866-22.997,95.988c-1.569,11.191-6.198,24.047-4.999,33.996c1.376,11.427,14.053,26.408,18.997,35.996
		c10.897,21.131,24.577,46.303,9.999,73.99c-6.005,11.405-16.976,25.293-24.997,31.996c-8.915,7.449-20.067,15.367-29.996,16.998
		c-39.159,6.43-89.139-28.146-112.986-51.993c-6.421-6.422-13.073-15.667-16.998-22.998c-7.336,6.329-12.982,14.349-18.998,21.998
		c16.984-3.034,25.067,16.03,22.997,31.996c-34.007-2.965-55.52,12.398-75.99,25.996c-8.268-5.273-22.454-11.625-21.998-22.997
		c0.329-8.188,12.558-13.242,18.998-17.998c17.165-12.676,24.436-18.751,39.995-32.995c5.85-5.356,15.734-14.138,16.998-18.998
		c3.308-12.719-3.759-24.382,3-31.996c7.148-8.052,21.276-3.424,31.996-7.999c6.546-2.794,14.549-16.558,20.997-24.997
		c22.827-29.872,48.302-62.456,61.993-96.988c-13.924,3.858-33.098,10.554-52.994,16.998c-22.472,7.279-54.393,12.077-61.992,29.997
		c-3.55,8.371,0.907,21.043-5,29.996c-10.457-0.978-11.442-13.353-14.998-21.997c-3.544-8.616-9.098-19.047-7.999-27.997
		c3.152-25.676,64.675-28.762,91.988-34.996c18.312-4.18,34.771-8.317,48.994-13.999c14.975-5.981,29.993-19.134,45.994-10.999
		c-1.663,13.565-16.538,22.973-18.997,37.995c-2.496,15.241,2.688,27.916,7.998,39.995c10.844-29.581,4.917-64.705,19.998-83.989
		c8.662-11.076,30.284-20.828,52.993-20.998c18.479-0.138,45.837,7.815,47.994,17.998c2.111,9.969-8.711,31.294-12.998,40.995
		c-6.633,15.007-13.582,41.023-37.995,27.997c-1.704-0.909-10.191-4.476-9.999-9.999c0.222-6.388,7.574-5.16,11.998-9.999
		C426.756,315.164,432.316,289.771,426.959,273.885z M267.979,423.866c-4.585,5.984-13.087,11.146-11.999,16.998
		c27.058,0.062,53.105-0.887,77.99-2.999c5.968-20.563-4.408-26.73-11.999-42.995c-5.629-12.063-8.673-24.958-12.998-30.996
		C295.763,383.082,281.682,405.983,267.979,423.866z M232.983,466.861c19.796,38.197,54.272,61.713,99.987,73.99
		c-1.438-16.676-2.987-45.256-2-66.991c0.27-5.929,4.218-13.808-1.999-16.998C297.365,460.585,262.644,461.193,232.983,466.861z
		 M369.966,528.853c7.012-19.218,0.521-42.302-6.999-55.993C361.376,491.489,360.564,517.895,369.966,528.853z"/>
	<path fill-rule="evenodd" clip-rule="evenodd" fill="#FFFFFF" d="M308.974,363.874c4.325,6.038,7.369,18.934,12.998,30.996
		c7.591,16.265,17.967,22.432,11.999,42.995c-24.885,2.112-50.932,3.061-77.99,2.999c-1.088-5.852,7.413-11.014,11.999-16.998
		C281.682,405.983,295.763,383.082,308.974,363.874z"/>
	<path fill-rule="evenodd" clip-rule="evenodd" fill="#FFFFFF" d="M328.972,456.862c6.217,3.19,2.269,11.069,1.999,16.998
		c-0.987,21.735,0.563,50.315,2,66.991c-45.715-12.277-80.191-35.793-99.987-73.99C262.644,461.193,297.365,460.585,328.972,456.862
		z"/>
	<path fill-rule="evenodd" clip-rule="evenodd" fill="#FFFFFF" d="M362.967,472.86c7.521,13.691,14.011,36.775,6.999,55.993
		C360.564,517.895,361.376,491.489,362.967,472.86z"/>
</g>
</svg>
